<svg version="1.1" id="Layer_1" xmlns="http://www.w3.org/2000/svg" xmlns:xlink="http://www.w3.org/1999/xlink" x="0px" y="0px"
	 width="100%" viewBox="0 0 1182 1182" enable-background="new 0 0 1182 1182" xml:space="preserve">
<path fill="#FADC00" opacity="1.000000" stroke="none" 
	d="
M551.000000,1.000006 
	C578.020874,1.000000 605.041809,1.000000 632.200928,1.359527 
	C633.355286,2.144759 634.343750,2.847252 635.391846,2.951810 
	C642.899353,3.700765 650.452820,4.068930 657.927856,5.046858 
	C674.566223,7.223595 691.355530,8.794872 707.736145,12.255760 
	C728.585754,16.660816 749.318665,21.949427 769.696777,28.181723 
	C805.809448,39.226189 840.440308,54.010159 873.612244,72.163979 
	C896.402893,84.636467 918.269836,98.485138 939.391663,113.638443 
	C963.716248,131.089600 986.164978,150.694275 1007.697205,171.369171 
	C1016.860779,180.167999 1025.337769,189.722488 1033.696777,199.308594 
	C1044.242188,211.402176 1054.937500,223.439590 1064.515381,236.286087 
	C1082.056519,259.813354 1098.247314,284.294281 1112.016113,310.272552 
	C1127.192993,338.907440 1140.703003,368.282990 1151.056641,399.051392 
	C1160.406006,426.835052 1168.619385,454.923981 1172.976807,483.967255 
	C1175.976318,503.959381 1178.324829,524.048828 1181.068726,544.080505 
	C1181.211426,545.122314 1182.333740,546.029907 1183.000000,547.000000 
	C1183.000000,577.020874 1183.000000,607.041809 1182.643555,637.200928 
	C1181.526245,641.943542 1180.669678,646.534485 1180.021606,651.154602 
	C1177.644897,668.096008 1176.214478,685.226746 1172.789429,701.950684 
	C1168.188843,724.414185 1163.133423,746.899536 1156.297974,768.757812 
	C1149.521851,790.426758 1141.131348,811.701111 1131.905762,832.462830 
	C1122.721802,853.131104 1112.625366,873.544861 1101.079224,892.970703 
	C1089.254639,912.865295 1075.850586,931.927002 1061.906372,950.424866 
	C1049.014038,967.527161 1035.326782,984.207092 1020.463379,999.599243 
	C1003.972961,1016.676392 986.205017,1032.612427 968.140076,1048.046631 
	C954.319702,1059.854492 939.476318,1070.545288 924.546814,1080.956787 
	C898.999756,1098.772827 872.199280,1114.544800 843.605408,1127.047607 
	C826.442688,1134.552002 809.401917,1142.478149 791.798035,1148.799316 
	C760.417664,1160.067139 728.369873,1169.232910 695.256897,1173.978760 
	C677.013367,1176.593506 658.691040,1178.656616 640.418335,1181.074341 
	C639.542664,1181.190186 638.803040,1182.334595 638.000000,1183.000000 
	C607.645752,1183.000000 577.291565,1183.000000 546.799072,1182.643555 
	C545.813477,1181.860596 544.998291,1181.150269 544.114075,1181.050293 
	C531.760193,1179.653198 519.337341,1178.738037 507.050690,1176.905151 
	C491.477692,1174.582153 475.761658,1172.502319 460.560699,1168.566528 
	C437.138397,1162.502075 413.953125,1155.405029 390.938019,1147.914307 
	C361.607635,1138.368286 334.026276,1124.743652 306.973053,1110.020996 
	C280.978119,1095.874268 255.970322,1080.182983 233.069962,1061.420410 
	C214.166946,1045.932861 195.225845,1030.384888 177.509186,1013.590027 
	C163.307831,1000.127502 150.438828,985.154358 137.864456,970.111084 
	C125.972733,955.884460 114.724762,941.049927 104.100456,925.848999 
	C84.565948,897.899475 67.791695,868.289917 54.067463,837.043213 
	C47.705498,822.558594 41.456936,807.982971 36.081696,793.114380 
	C23.623682,758.653748 13.826703,723.445801 8.990547,687.022644 
	C6.798202,670.511108 5.017198,653.945129 2.931824,637.418701 
	C2.780187,636.217041 1.666437,635.136719 1.000003,634.000000 
	C1.000000,606.645752 1.000000,579.291565 1.359518,551.799072 
	C2.134599,550.977905 2.848012,550.325623 2.921665,549.607666 
	C4.325435,535.925110 5.174916,522.166321 7.122896,508.564148 
	C9.399613,492.666504 11.681625,476.663910 15.651384,461.139008 
	C21.682793,437.551392 28.435755,414.087860 36.231777,391.027863 
	C45.139690,364.678955 56.702984,339.382111 69.933891,314.839020 
	C83.343781,289.963959 97.679665,265.668457 115.072868,243.404419 
	C130.268661,223.953171 145.666306,204.539627 162.461960,186.493561 
	C177.864365,169.944427 194.816208,154.740982 211.907501,139.890839 
	C225.401154,128.166580 239.817368,117.420944 254.400345,107.051399 
	C282.577942,87.015076 312.286530,69.463493 344.015015,55.602261 
	C361.457611,47.982113 379.055969,40.632797 396.927643,34.101406 
	C420.768646,25.388485 445.282043,18.935890 470.191559,13.821159 
	C495.954285,8.531252 521.814697,4.391250 548.087463,2.921132 
	C549.091003,2.864976 550.030579,1.666295 551.000000,1.000006 
M453.631775,223.865128 
	C433.096893,222.807526 412.710693,223.992065 392.497833,227.873016 
	C332.543671,239.384460 281.516724,267.333374 242.269440,314.046509 
	C179.712173,388.503815 163.924911,473.146210 191.930161,566.082397 
	C192.971664,569.538696 192.757401,572.166565 190.956573,575.363770 
	C167.274628,617.408752 157.192062,662.514465 163.994064,710.372192 
	C175.493912,791.283020 219.002365,848.988220 293.198608,883.340515 
	C297.668793,885.410217 300.505737,888.113586 302.976349,892.351990 
	C351.038574,974.802795 422.861816,1018.283142 518.257568,1020.545044 
	C568.983826,1021.747803 615.621033,1006.394958 657.765625,977.969666 
	C660.455994,976.155151 662.831970,975.493774 666.034058,976.228455 
	C705.133179,985.199951 744.248962,985.156616 783.318359,976.028137 
	C906.537048,947.238281 988.308899,836.606323 985.248352,717.179077 
	C984.362854,682.625061 977.366577,649.558533 963.756165,617.863220 
	C962.463745,614.853516 962.562012,612.493347 963.822449,609.526550 
	C989.938538,548.054688 996.346069,484.512238 981.575378,419.409943 
	C951.321289,286.063416 839.487366,189.456070 703.645081,178.887939 
	C633.054382,173.396210 568.011902,190.323715 508.758331,229.143646 
	C505.990875,230.956726 503.610413,231.171753 500.448456,230.669891 
	C485.187042,228.247681 469.871857,226.164047 453.631775,223.865128 
z"/>
<path fill="#000000" opacity="1.000000" stroke="none" 
	d="
M550.531372,1.000006 
	C550.030579,1.666295 549.091003,2.864976 548.087463,2.921132 
	C521.814697,4.391250 495.954285,8.531252 470.191559,13.821159 
	C445.282043,18.935890 420.768646,25.388485 396.927643,34.101406 
	C379.055969,40.632797 361.457611,47.982113 344.015015,55.602261 
	C312.286530,69.463493 282.577942,87.015076 254.400345,107.051399 
	C239.817368,117.420944 225.401154,128.166580 211.907501,139.890839 
	C194.816208,154.740982 177.864365,169.944427 162.461960,186.493561 
	C145.666306,204.539627 130.268661,223.953171 115.072868,243.404419 
	C97.679665,265.668457 83.343781,289.963959 69.933891,314.839020 
	C56.702984,339.382111 45.139690,364.678955 36.231777,391.027863 
	C28.435755,414.087860 21.682793,437.551392 15.651384,461.139008 
	C11.681625,476.663910 9.399613,492.666504 7.122896,508.564148 
	C5.174916,522.166321 4.325435,535.925110 2.921665,549.607666 
	C2.848012,550.325623 2.134599,550.977905 1.359518,551.330383 
	C1.000000,367.739563 1.000000,184.479156 1.000000,1.000000 
	C184.020844,1.000000 367.041748,1.000000 550.531372,1.000006 
z"/>
<path fill="#000000" opacity="1.000000" stroke="none" 
	d="
M1183.000000,546.531372 
	C1182.333740,546.029907 1181.211426,545.122314 1181.068726,544.080505 
	C1178.324829,524.048828 1175.976318,503.959381 1172.976807,483.967255 
	C1168.619385,454.923981 1160.406006,426.835052 1151.056641,399.051392 
	C1140.703003,368.282990 1127.192993,338.907440 1112.016113,310.272552 
	C1098.247314,284.294281 1082.056519,259.813354 1064.515381,236.286087 
	C1054.937500,223.439590 1044.242188,211.402176 1033.696777,199.308594 
	C1025.337769,189.722488 1016.860779,180.167999 1007.697205,171.369171 
	C986.164978,150.694275 963.716248,131.089600 939.391663,113.638443 
	C918.269836,98.485138 896.402893,84.636467 873.612244,72.163979 
	C840.440308,54.010159 805.809448,39.226189 769.696777,28.181723 
	C749.318665,21.949427 728.585754,16.660816 707.736145,12.255760 
	C691.355530,8.794872 674.566223,7.223595 657.927856,5.046858 
	C650.452820,4.068930 642.899353,3.700765 635.391846,2.951810 
	C634.343750,2.847252 633.355286,2.144759 632.669617,1.359527 
	C816.260193,1.000000 999.520325,1.000000 1183.000000,1.000000 
	C1183.000000,182.687500 1183.000000,364.375092 1183.000000,546.531372 
z"/>
<path fill="#000000" opacity="1.000000" stroke="none" 
	d="
M1.000003,634.468628 
	C1.666437,635.136719 2.780187,636.217041 2.931824,637.418701 
	C5.017198,653.945129 6.798202,670.511108 8.990547,687.022644 
	C13.826703,723.445801 23.623682,758.653748 36.081696,793.114380 
	C41.456936,807.982971 47.705498,822.558594 54.067463,837.043213 
	C67.791695,868.289917 84.565948,897.899475 104.100456,925.848999 
	C114.724762,941.049927 125.972733,955.884460 137.864456,970.111084 
	C150.438828,985.154358 163.307831,1000.127502 177.509186,1013.590027 
	C195.225845,1030.384888 214.166946,1045.932861 233.069962,1061.420410 
	C255.970322,1080.182983 280.978119,1095.874268 306.973053,1110.020996 
	C334.026276,1124.743652 361.607635,1138.368286 390.938019,1147.914307 
	C413.953125,1155.405029 437.138397,1162.502075 460.560699,1168.566528 
	C475.761658,1172.502319 491.477692,1174.582153 507.050690,1176.905151 
	C519.337341,1178.738037 531.760193,1179.653198 544.114075,1181.050293 
	C544.998291,1181.150269 545.813477,1181.860596 546.330383,1182.643555 
	C364.405975,1183.000000 182.811966,1183.000000 1.000000,1183.000000 
	C1.000000,1000.312500 1.000000,817.624878 1.000003,634.468628 
z"/>
<path fill="#000000" opacity="1.000000" stroke="none" 
	d="
M638.468689,1183.000000 
	C638.803040,1182.334595 639.542664,1181.190186 640.418335,1181.074341 
	C658.691040,1178.656616 677.013367,1176.593506 695.256897,1173.978760 
	C728.369873,1169.232910 760.417664,1160.067139 791.798035,1148.799316 
	C809.401917,1142.478149 826.442688,1134.552002 843.605408,1127.047607 
	C872.199280,1114.544800 898.999756,1098.772827 924.546814,1080.956787 
	C939.476318,1070.545288 954.319702,1059.854492 968.140076,1048.046631 
	C986.205017,1032.612427 1003.972961,1016.676392 1020.463379,999.599243 
	C1035.326782,984.207092 1049.014038,967.527161 1061.906372,950.424866 
	C1075.850586,931.927002 1089.254639,912.865295 1101.079224,892.970703 
	C1112.625366,873.544861 1122.721802,853.131104 1131.905762,832.462830 
	C1141.131348,811.701111 1149.521851,790.426758 1156.297974,768.757812 
	C1163.133423,746.899536 1168.188843,724.414185 1172.789429,701.950684 
	C1176.214478,685.226746 1177.644897,668.096008 1180.021606,651.154602 
	C1180.669678,646.534485 1181.526245,641.943542 1182.643555,637.669617 
	C1183.000000,819.593750 1183.000000,1001.187500 1183.000000,1183.000000 
	C1001.645813,1183.000000 820.291565,1183.000000 638.468689,1183.000000 
z"/>
<path fill="#00008C" opacity="1.000000" stroke="none" 
	d="
M454.103760,223.912720 
	C469.871857,226.164047 485.187042,228.247681 500.448456,230.669891 
	C503.610413,231.171753 505.990875,230.956726 508.758331,229.143646 
	C568.011902,190.323715 633.054382,173.396210 703.645081,178.887939 
	C839.487366,189.456070 951.321289,286.063416 981.575378,419.409943 
	C996.346069,484.512238 989.938538,548.054688 963.822449,609.526550 
	C962.562012,612.493347 962.463745,614.853516 963.756165,617.863220 
	C977.366577,649.558533 984.362854,682.625061 985.248352,717.179077 
	C988.308899,836.606323 906.537048,947.238281 783.318359,976.028137 
	C744.248962,985.156616 705.133179,985.199951 666.034058,976.228455 
	C662.831970,975.493774 660.455994,976.155151 657.765625,977.969666 
	C615.621033,1006.394958 568.983826,1021.747803 518.257568,1020.545044 
	C422.861816,1018.283142 351.038574,974.802795 302.976349,892.351990 
	C300.505737,888.113586 297.668793,885.410217 293.198608,883.340515 
	C219.002365,848.988220 175.493912,791.283020 163.994064,710.372192 
	C157.192062,662.514465 167.274628,617.408752 190.956573,575.363770 
	C192.757401,572.166565 192.971664,569.538696 191.930161,566.082397 
	C163.924911,473.146210 179.712173,388.503815 242.269440,314.046509 
	C281.516724,267.333374 332.543671,239.384460 392.497833,227.873016 
	C412.710693,223.992065 433.096893,222.807526 454.103760,223.912720 
M494.201324,368.215942 
	C467.764526,356.156555 440.357452,352.920532 411.886902,359.067810 
	C351.015320,372.211060 307.204742,429.938049 311.507782,491.360199 
	C314.064789,527.859619 328.926727,558.287292 356.787506,582.069580 
	C363.523376,587.819458 371.129272,592.550171 378.148438,597.614868 
	C324.859711,600.177551 289.469452,645.388428 295.328674,693.916687 
	C298.122772,717.058350 308.901733,736.318420 327.429596,750.587646 
	C350.845184,768.621094 377.156647,773.130737 405.651031,765.149536 
	C402.065308,824.734436 440.174713,870.185913 488.323456,883.798462 
	C514.024841,891.064636 539.435669,889.506714 563.993530,878.917419 
	C596.164490,865.045349 617.192566,840.756836 628.520264,807.640808 
	C681.886353,867.263611 771.336853,861.112610 818.425354,809.322327 
	C841.766113,783.651062 853.773376,753.423401 852.671448,718.796509 
	C851.330688,676.664429 832.835693,642.969360 799.204346,617.592651 
	C874.536560,548.347900 875.009460,431.972076 804.525208,362.010834 
	C770.199402,327.939758 728.376831,310.214508 680.156006,310.520142 
	C615.661621,310.928925 565.926392,340.057220 529.693298,393.133850 
	C519.210571,382.899628 507.711365,374.771729 494.201324,368.215942 
z"/>
<path fill="#FADC00" opacity="1.000000" stroke="none" 
	d="
M494.528748,368.402222 
	C507.711365,374.771729 519.210571,382.899628 529.693298,393.133850 
	C565.926392,340.057220 615.661621,310.928925 680.156006,310.520142 
	C728.376831,310.214508 770.199402,327.939758 804.525208,362.010834 
	C875.009460,431.972076 874.536560,548.347900 799.204346,617.592651 
	C832.835693,642.969360 851.330688,676.664429 852.671448,718.796509 
	C853.773376,753.423401 841.766113,783.651062 818.425354,809.322327 
	C771.336853,861.112610 681.886353,867.263611 628.520264,807.640808 
	C617.192566,840.756836 596.164490,865.045349 563.993530,878.917419 
	C539.435669,889.506714 514.024841,891.064636 488.323456,883.798462 
	C440.174713,870.185913 402.065308,824.734436 405.651031,765.149536 
	C377.156647,773.130737 350.845184,768.621094 327.429596,750.587646 
	C308.901733,736.318420 298.122772,717.058350 295.328674,693.916687 
	C289.469452,645.388428 324.859711,600.177551 378.148438,597.614868 
	C371.129272,592.550171 363.523376,587.819458 356.787506,582.069580 
	C328.926727,558.287292 314.064789,527.859619 311.507782,491.360199 
	C307.204742,429.938049 351.015320,372.211060 411.886902,359.067810 
	C440.357452,352.920532 467.764526,356.156555 494.528748,368.402222 
z"/>
</svg>